<svg xmlns="http://www.w3.org/2000/svg" viewBox="0 0 168 168">
  <path fill="#1ED760" d="M84 0C37.56 0 0 37.56 0 84s37.56 84 84 84 84-37.56 84-84S130.44 0 84 0zm38.41 121.12c-1.5 2.46-4.71 3.19-7.17 1.69-19.63-12-44.38-14.72-73.5-8.07-2.81.64-5.6-1.12-6.24-3.93-.64-2.81 1.1-5.6 3.93-6.24 31.88-7.29 59.25-4.15 81.16 9.34 2.46 1.5 3.19 4.71 1.69 7.17l.13.04zm10.25-22.8c-1.89 3.07-5.91 4.04-8.98 2.15-22.44-13.8-56.74-17.8-83.32-9.73-3.46 1.04-7.09-.92-8.12-4.38-1.04-3.46.91-7.09 4.38-8.12 30.39-9.23 68.21-4.76 94.22 11.11 3.07 1.89 4.04 5.91 2.15 8.98h-.33zm.88-23.75c-26.94-16.01-71.52-17.5-97.29-9.68-4.14 1.26-8.52-1.08-9.77-5.22-1.26-4.14 1.08-8.52 5.22-9.77 29.58-8.98 78.76-7.25 109.83 11.15 3.7 2.2 4.91 6.99 2.71 10.69-2.2 3.7-6.99 4.91-10.69 2.71v.12z"/>
</svg> 