<svg width="98" height="98" viewBox="0 0 98 98" fill="none" xmlns="http://www.w3.org/2000/svg">
<rect x="0.5" y="0.5" width="97" height="97" rx="7.58247" fill="#F2F2F2" stroke="#D5D2D2"/>
<g opacity="0.34">
<path d="M33.9556 25.5508C33.4351 25.6047 32.9972 26.0877 33 26.6048V50.4967C33.0001 51.0486 33.5082 51.5507 34.0667 51.5508H63.9333C64.4918 51.5507 65 51.0486 65 50.4967V26.6048C64.9999 26.053 64.4918 25.5508 63.9333 25.5508C53.9432 25.5508 43.9377 25.5508 33.9556 25.5508ZM35.1333 27.6589H62.8667V45.3143L57.2556 39.2425C57.0386 39.0078 56.7097 38.8786 56.3889 38.9021C56.25 38.9123 56.1133 38.95 55.9889 39.0119L46.9222 43.4916L43.3889 39.6048C43.1764 39.3691 42.8523 39.236 42.5333 39.2535C42.3907 39.2623 42.25 39.3 42.1222 39.3633L35.1333 42.8109V27.6589ZM48.2889 31.1724C46.1415 31.1724 44.3778 32.9152 44.3778 35.0373C44.3778 37.1593 46.1415 38.9021 48.2889 38.9021C50.4363 38.9021 52.2 37.1593 52.2 35.0373C52.2 32.9152 50.4363 31.1724 48.2889 31.1724ZM48.2889 33.2805C49.2834 33.2805 50.0667 34.0546 50.0667 35.0373C50.0667 36.02 49.2834 36.794 48.2889 36.794C47.2944 36.794 46.5111 36.02 46.5111 35.0373C46.5111 34.0546 47.2944 33.2805 48.2889 33.2805ZM56.2222 41.2518L62.8667 48.4545V49.4427H52.3222L48.3889 45.1167L56.2222 41.2518ZM42.3445 41.6031L49.4667 49.4427H35.1333V45.1606L42.3445 41.6031Z" fill="black"/>
</g>
<path d="M21.4759 64.7273H22.5767V69.5107C22.5767 70.0196 22.4571 70.4706 22.218 70.8636C21.9789 71.2543 21.6428 71.562 21.2095 71.7869C20.7763 72.0095 20.2685 72.1207 19.6861 72.1207C19.1061 72.1207 18.5994 72.0095 18.1662 71.7869C17.733 71.562 17.3968 71.2543 17.1577 70.8636C16.9186 70.4706 16.799 70.0196 16.799 69.5107V64.7273H17.8963V69.4219C17.8963 69.7509 17.9685 70.0433 18.1129 70.299C18.2597 70.5547 18.4669 70.7559 18.7344 70.9027C19.0019 71.0471 19.3191 71.1193 19.6861 71.1193C20.0554 71.1193 20.3738 71.0471 20.6413 70.9027C20.9112 70.7559 21.1172 70.5547 21.2592 70.299C21.4036 70.0433 21.4759 69.7509 21.4759 69.4219V64.7273ZM24.0868 74.0455V66.5455H25.1238V67.4297H25.2125C25.2741 67.3161 25.3629 67.1847 25.4789 67.0355C25.5949 66.8864 25.7559 66.7562 25.9618 66.6449C26.1678 66.5312 26.44 66.4744 26.7786 66.4744C27.2189 66.4744 27.6119 66.5857 27.9576 66.8082C28.3032 67.0308 28.5743 67.3516 28.7708 67.7706C28.9696 68.1896 29.0691 68.6939 29.0691 69.2834C29.0691 69.8729 28.9708 70.3783 28.7743 70.7997C28.5778 71.2187 28.3079 71.5419 27.9647 71.7692C27.6214 71.9941 27.2296 72.1065 26.7892 72.1065C26.4578 72.1065 26.1867 72.0509 25.976 71.9396C25.7677 71.8284 25.6043 71.6982 25.486 71.549C25.3676 71.3999 25.2765 71.2673 25.2125 71.1513H25.1486V74.0455H24.0868ZM25.1273 69.2727C25.1273 69.6562 25.1829 69.9924 25.2942 70.2812C25.4055 70.5701 25.5665 70.7962 25.7772 70.9595C25.9879 71.1205 26.2459 71.201 26.5513 71.201C26.8685 71.201 27.1337 71.117 27.3468 70.9489C27.5598 70.7784 27.7208 70.5476 27.8297 70.2564C27.941 69.9652 27.9966 69.6373 27.9966 69.2727C27.9966 68.9129 27.9422 68.5897 27.8333 68.3033C27.7267 68.0168 27.5658 67.7907 27.3503 67.625C27.1373 67.4593 26.8709 67.3764 26.5513 67.3764C26.2435 67.3764 25.9831 67.4557 25.7701 67.6143C25.5594 67.773 25.3996 67.9943 25.2907 68.2784C25.1818 68.5625 25.1273 68.8939 25.1273 69.2727ZM31.3205 64.7273V72H30.2587V64.7273H31.3205ZM35.0465 72.1101C34.5352 72.1101 34.0889 71.9929 33.7077 71.7585C33.3266 71.5241 33.0307 71.1963 32.82 70.7749C32.6093 70.3535 32.5039 69.861 32.5039 69.2976C32.5039 68.7318 32.6093 68.237 32.82 67.8132C33.0307 67.3894 33.3266 67.0604 33.7077 66.826C34.0889 66.5916 34.5352 66.4744 35.0465 66.4744C35.5579 66.4744 36.0041 66.5916 36.3853 66.826C36.7665 67.0604 37.0624 67.3894 37.2731 67.8132C37.4838 68.237 37.5891 68.7318 37.5891 69.2976C37.5891 69.861 37.4838 70.3535 37.2731 70.7749C37.0624 71.1963 36.7665 71.5241 36.3853 71.7585C36.0041 71.9929 35.5579 72.1101 35.0465 72.1101ZM35.0501 71.2188C35.3815 71.2188 35.6561 71.1312 35.8739 70.956C36.0917 70.7808 36.2527 70.5476 36.3569 70.2564C36.4634 69.9652 36.5167 69.6444 36.5167 69.294C36.5167 68.946 36.4634 68.6264 36.3569 68.3352C36.2527 68.0417 36.0917 67.8061 35.8739 67.6286C35.6561 67.451 35.3815 67.3622 35.0501 67.3622C34.7163 67.3622 34.4393 67.451 34.2191 67.6286C34.0013 67.8061 33.8391 68.0417 33.7326 68.3352C33.6284 68.6264 33.5763 68.946 33.5763 69.294C33.5763 69.6444 33.6284 69.9652 33.7326 70.2564C33.8391 70.5476 34.0013 70.7808 34.2191 70.956C34.4393 71.1312 34.7163 71.2188 35.0501 71.2188ZM40.3617 72.1207C40.016 72.1207 39.7035 72.0568 39.4242 71.929C39.1448 71.7988 38.9235 71.6106 38.7601 71.3643C38.5991 71.1181 38.5186 70.8163 38.5186 70.4588C38.5186 70.151 38.5778 69.8977 38.6962 69.6989C38.8146 69.5 38.9744 69.3426 39.1756 69.2266C39.3768 69.1106 39.6017 69.023 39.8503 68.9638C40.0989 68.9046 40.3522 68.8596 40.6103 68.8288C40.937 68.791 41.2021 68.7602 41.4057 68.7365C41.6093 68.7105 41.7573 68.669 41.8496 68.6122C41.9419 68.5554 41.9881 68.4631 41.9881 68.3352V68.3104C41.9881 68.0002 41.9005 67.7599 41.7253 67.5895C41.5525 67.419 41.2944 67.3338 40.9512 67.3338C40.5937 67.3338 40.312 67.4131 40.106 67.5717C39.9024 67.728 39.7615 67.902 39.6834 68.0938L38.6855 67.8665C38.8039 67.535 38.9767 67.2675 39.204 67.0639C39.4337 66.858 39.6976 66.7088 39.9959 66.6165C40.2942 66.5218 40.6079 66.4744 40.937 66.4744C41.1548 66.4744 41.3856 66.5005 41.6294 66.5526C41.8757 66.6023 42.1053 66.6946 42.3184 66.8295C42.5338 66.9645 42.7102 67.1574 42.8475 67.4084C42.9848 67.657 43.0534 67.9801 43.0534 68.3778V72H42.0165V71.2543H41.9739C41.9052 71.3916 41.8023 71.5265 41.665 71.6591C41.5276 71.7917 41.3513 71.9018 41.1358 71.9893C40.9204 72.0769 40.6623 72.1207 40.3617 72.1207ZM40.5925 71.2685C40.8861 71.2685 41.137 71.2105 41.3453 71.0945C41.556 70.9785 41.7159 70.8269 41.8248 70.6399C41.936 70.4505 41.9917 70.2481 41.9917 70.0327V69.3295C41.9538 69.3674 41.8804 69.4029 41.7715 69.4361C41.665 69.4669 41.543 69.4941 41.4057 69.5178C41.2684 69.5391 41.1346 69.5592 41.0044 69.5781C40.8742 69.5947 40.7653 69.6089 40.6777 69.6207C40.4718 69.6468 40.2836 69.6906 40.1131 69.7521C39.945 69.8137 39.8101 69.9025 39.7083 70.0185C39.6088 70.1321 39.5591 70.2836 39.5591 70.473C39.5591 70.7358 39.6562 70.9347 39.8503 71.0696C40.0444 71.2022 40.2918 71.2685 40.5925 71.2685ZM46.5096 72.1065C46.0692 72.1065 45.6763 71.9941 45.3306 71.7692C44.9873 71.5419 44.7174 71.2187 44.521 70.7997C44.3268 70.3783 44.2298 69.8729 44.2298 69.2834C44.2298 68.6939 44.328 68.1896 44.5245 67.7706C44.7234 67.3516 44.9956 67.0308 45.3413 66.8082C45.6869 66.5857 46.0787 66.4744 46.5167 66.4744C46.8552 66.4744 47.1275 66.5312 47.3335 66.6449C47.5418 66.7562 47.7028 66.8864 47.8164 67.0355C47.9324 67.1847 48.0224 67.3161 48.0863 67.4297H48.1502V64.7273H49.212V72H48.1751V71.1513H48.0863C48.0224 71.2673 47.93 71.3999 47.8093 71.549C47.6909 71.6982 47.5276 71.8284 47.3192 71.9396C47.1109 72.0509 46.841 72.1065 46.5096 72.1065ZM46.744 71.201C47.0494 71.201 47.3074 71.1205 47.5181 70.9595C47.7312 70.7962 47.8922 70.5701 48.0011 70.2812C48.1123 69.9924 48.168 69.6562 48.168 69.2727C48.168 68.8939 48.1135 68.5625 48.0046 68.2784C47.8957 67.9943 47.7359 67.773 47.5252 67.6143C47.3145 67.4557 47.0541 67.3764 46.744 67.3764C46.4244 67.3764 46.158 67.4593 45.945 67.625C45.7319 67.7907 45.5709 68.0168 45.462 68.3033C45.3555 68.5897 45.3022 68.9129 45.3022 69.2727C45.3022 69.6373 45.3567 69.9652 45.4656 70.2564C45.5745 70.5476 45.7354 70.7784 45.9485 70.9489C46.1639 71.117 46.4291 71.201 46.744 71.201ZM53.4592 72V64.7273H56.0515C56.6173 64.7273 57.0861 64.8303 57.4577 65.0362C57.8294 65.2422 58.1076 65.5239 58.2923 65.8814C58.4769 66.2365 58.5692 66.6366 58.5692 67.0817C58.5692 67.5291 58.4757 67.9316 58.2887 68.2891C58.104 68.6442 57.8247 68.9259 57.4506 69.1342C57.079 69.3402 56.6114 69.4432 56.0479 69.4432H54.2653V68.5128H55.9485C56.306 68.5128 56.596 68.4512 56.8185 68.3281C57.0411 68.2027 57.2044 68.0322 57.3086 67.8168C57.4128 67.6013 57.4648 67.3563 57.4648 67.0817C57.4648 66.8071 57.4128 66.5632 57.3086 66.3501C57.2044 66.1371 57.0399 65.9702 56.815 65.8494C56.5924 65.7287 56.2989 65.6683 55.9343 65.6683H54.5565V72H53.4592ZM60.8322 68.7614V72H59.7704V64.7273H60.818V67.4332H60.8855C61.0133 67.1397 61.2086 66.9065 61.4714 66.7337C61.7342 66.5608 62.0775 66.4744 62.5012 66.4744C62.8753 66.4744 63.202 66.5514 63.4814 66.7053C63.7631 66.8591 63.9809 67.0888 64.1348 67.3942C64.291 67.6972 64.3691 68.076 64.3691 68.5305V72H63.3074V68.6584C63.3074 68.2583 63.2044 67.9482 62.9984 67.728C62.7924 67.5054 62.506 67.3942 62.139 67.3942C61.8881 67.3942 61.6632 67.4474 61.4643 67.554C61.2678 67.6605 61.1127 67.8168 60.9991 68.0227C60.8878 68.2263 60.8322 68.4725 60.8322 68.7614ZM68.0836 72.1101C67.5723 72.1101 67.126 71.9929 66.7449 71.7585C66.3637 71.5241 66.0678 71.1963 65.8571 70.7749C65.6464 70.3535 65.541 69.861 65.541 69.2976C65.541 68.7318 65.6464 68.237 65.8571 67.8132C66.0678 67.3894 66.3637 67.0604 66.7449 66.826C67.126 66.5916 67.5723 66.4744 68.0836 66.4744C68.595 66.4744 69.0413 66.5916 69.4224 66.826C69.8036 67.0604 70.0995 67.3894 70.3102 67.8132C70.5209 68.237 70.6262 68.7318 70.6262 69.2976C70.6262 69.861 70.5209 70.3535 70.3102 70.7749C70.0995 71.1963 69.8036 71.5241 69.4224 71.7585C69.0413 71.9929 68.595 72.1101 68.0836 72.1101ZM68.0872 71.2188C68.4186 71.2188 68.6932 71.1312 68.911 70.956C69.1288 70.7808 69.2898 70.5476 69.394 70.2564C69.5005 69.9652 69.5538 69.6444 69.5538 69.294C69.5538 68.946 69.5005 68.6264 69.394 68.3352C69.2898 68.0417 69.1288 67.8061 68.911 67.6286C68.6932 67.451 68.4186 67.3622 68.0872 67.3622C67.7534 67.3622 67.4764 67.451 67.2562 67.6286C67.0384 67.8061 66.8762 68.0417 66.7697 68.3352C66.6655 68.6264 66.6135 68.946 66.6135 69.294C66.6135 69.6444 66.6655 69.9652 66.7697 70.2564C66.8762 70.5476 67.0384 70.7808 67.2562 70.956C67.4764 71.1312 67.7534 71.2188 68.0872 71.2188ZM74.3576 66.5455V67.3977H71.3782V66.5455H74.3576ZM72.1772 65.2386H73.239V70.3984C73.239 70.6044 73.2698 70.7595 73.3313 70.8636C73.3929 70.9654 73.4722 71.0353 73.5692 71.0732C73.6687 71.1087 73.7764 71.1264 73.8924 71.1264C73.9776 71.1264 74.0522 71.1205 74.1161 71.1087C74.18 71.0968 74.2298 71.0874 74.2653 71.0803L74.457 71.9574C74.3955 71.9811 74.3079 72.0047 74.1942 72.0284C74.0806 72.0545 73.9386 72.0687 73.7681 72.071C73.4888 72.0758 73.2283 72.026 72.9869 71.9219C72.7454 71.8177 72.5501 71.6567 72.4009 71.4389C72.2518 71.2211 72.1772 70.9477 72.1772 70.6186V65.2386ZM77.7711 72.1101C77.2598 72.1101 76.8135 71.9929 76.4324 71.7585C76.0512 71.5241 75.7553 71.1963 75.5446 70.7749C75.3339 70.3535 75.2285 69.861 75.2285 69.2976C75.2285 68.7318 75.3339 68.237 75.5446 67.8132C75.7553 67.3894 76.0512 67.0604 76.4324 66.826C76.8135 66.5916 77.2598 66.4744 77.7711 66.4744C78.2825 66.4744 78.7288 66.5916 79.1099 66.826C79.4911 67.0604 79.787 67.3894 79.9977 67.8132C80.2084 68.237 80.3137 68.7318 80.3137 69.2976C80.3137 69.861 80.2084 70.3535 79.9977 70.7749C79.787 71.1963 79.4911 71.5241 79.1099 71.7585C78.7288 71.9929 78.2825 72.1101 77.7711 72.1101ZM77.7747 71.2188C78.1061 71.2188 78.3807 71.1312 78.5985 70.956C78.8163 70.7808 78.9773 70.5476 79.0815 70.2564C79.188 69.9652 79.2413 69.6444 79.2413 69.294C79.2413 68.946 79.188 68.6264 79.0815 68.3352C78.9773 68.0417 78.8163 67.8061 78.5985 67.6286C78.3807 67.451 78.1061 67.3622 77.7747 67.3622C77.4409 67.3622 77.1639 67.451 76.9437 67.6286C76.7259 67.8061 76.5637 68.0417 76.4572 68.3352C76.353 68.6264 76.301 68.946 76.301 69.294C76.301 69.6444 76.353 69.9652 76.4572 70.2564C76.5637 70.5476 76.7259 70.7808 76.9437 70.956C77.1639 71.1312 77.4409 71.2188 77.7747 71.2188Z" fill="#8F8F8F"/>
</svg>
